<svg xmlns="http://www.w3.org/2000/svg" viewBox="0 0 400 500" width="400" height="500">
  <circle cx="200" cy="190" r="160" fill="none" stroke="#4F8EF7" stroke-width="7"/>
  <g stroke="#4F8EF7" stroke-width="6" fill="none" stroke-linecap="round" stroke-linejoin="round">
    <rect x="100" y="110" width="200" height="150" rx="2"/>
    <path d="M 78 260 L 322 260 L 312 290 L 88 290 Z"/>
    <path d="M 188 274 L 212 274"/>
  </g>
  <circle cx="152" cy="148" r="9" fill="none" stroke="#4F8EF7" stroke-width="5"/>
  <g stroke="#4F8EF7" stroke-width="4" fill="none" stroke-linecap="round">
    <path d="M 152 182 Q 158 176 164 182"/>
    <path d="M 168 184 Q 174 178 180 184"/>
  </g>
  <path d="M 125 250 L 158 196 L 190 228 L 210 212 L 240 250 Z" fill="#4F8EF7"/>
  <g stroke="#4F8EF7" stroke-width="4.5" fill="none" stroke-linecap="round">
    <path d="M 242 250 Q 241 210 244 165"/>
    <path d="M 244 162 Q 228 150 215 148"/>
    <path d="M 244 162 Q 230 155 216 160"/>
    <path d="M 244 162 Q 260 150 274 148"/>
    <path d="M 244 162 Q 258 155 272 160"/>
    <path d="M 244 162 Q 244 148 244 138"/>
    <path d="M 244 162 Q 236 150 232 138"/>
    <path d="M 244 162 Q 252 150 256 138"/>
  </g>
  <text x="200" y="420" text-anchor="middle" font-family="'Plus Jakarta Sans','Helvetica Neue',Arial,sans-serif" font-weight="800" font-size="76" fill="#4F8EF7" letter-spacing="2">NOVO</text>
  <text x="200" y="475" text-anchor="middle" font-family="'Plus Jakarta Sans','Helvetica Neue',Arial,sans-serif" font-weight="700" font-size="34" fill="#4F8EF7" letter-spacing="3">WEB BUILD</text>
</svg>
